<svg xmlns="http://www.w3.org/2000/svg" viewBox="0 0 355.42 54.44"><defs><style>.cls-1{fill:#fff;}</style></defs><g id="Layer_2" data-name="Layer 2"><g id="Layer_2-2" data-name="Layer 2"><path class="cls-1" d="M13.51,14.72a6.33,6.33,0,0,1-.06-2.67c.35-1.62,1.45-3.42,4.66-3.42,2.95,0,4.72,1.84,4.72,4.6v3.14H35.5V12.81C35.5,1.76,25.54,0,18.35,0,9.32,0,2,3,.6,11.27a17.69,17.69,0,0,0,.1,6.84c2.2,10.4,20.26,13.4,22.89,20a6.56,6.56,0,0,1,.1,3.75c-.42,1.71-1.57,3.44-5,3.44-3.18,0-5.07-1.86-5.07-4.63V35.75H0v3.91C0,51,8.93,54.44,18.47,54.44c9.18,0,16.72-3.13,18-11.63a25.25,25.25,0,0,0-.05-8.32C34.22,23.82,15,20.66,13.51,14.72Zm165.24.12a6.94,6.94,0,0,1,0-2.61c.36-1.62,1.46-3.4,4.61-3.4A4.29,4.29,0,0,1,188,13.4v3.09h12.51V13C200.48,2,190.7.29,183.56.29c-8.95,0-16.26,3-17.62,11.19a17.15,17.15,0,0,0,.12,6.77c2.22,10.27,20.1,13.24,22.68,19.77a6.82,6.82,0,0,1,.1,3.72c-.39,1.69-1.53,3.4-4.9,3.4-3.17,0-5.07-1.82-5.07-4.57V35.68H165.4v3.87c0,11.23,8.8,14.62,18.27,14.62,9.07,0,16.57-3.1,17.77-11.51a25,25,0,0,0-.08-8.24C199.26,23.89,180.19,20.72,178.75,14.84ZM294.13,42.53l-12-40.91H263.31V51.9h12.47l-.72-42.22L287.91,51.9H306V1.62H293.44ZM54.4,1.62,45,52.43h13.7l7.12-47,6.92,47H86.36L77,1.62Zm76.75,0-6.42,39.72-6.4-39.72H97.6L96.5,52.43h12.7l.34-47,8.74,47h12.88l8.75-47,.35,47H153L151.85,1.62Zm118.09,0H236.37V39.21a9.78,9.78,0,0,1-.11,1.95,4.59,4.59,0,0,1-4.89,3.7,4.53,4.53,0,0,1-4.84-3.7,8,8,0,0,1-.13-1.95V1.62H213.53V38c0,.93.06,2.85.11,3.35.89,9.49,8.37,12.57,17.71,12.57s16.84-3.08,17.74-12.57A26.73,26.73,0,0,0,249.2,38Zm88.21,22.29v7.41h5.22v7.35a9.2,9.2,0,0,1-.14,2c-.2,1.37-1.5,3.7-5.22,3.7s-4.95-2.33-5.17-3.7a12.83,12.83,0,0,1-.14-2V15.45a10.74,10.74,0,0,1,.24-2.4c.25-1.24,1.35-3.68,5.05-3.68,3.91,0,4.85,2.58,5.07,3.68a12.85,12.85,0,0,1,.16,2v2.81h12.8V16.16a29,29,0,0,0-.1-3.36C354.26,3.27,346.41.25,337.4.25s-16.72,3-17.83,12.55a33.14,33.14,0,0,0-.26,3.36V37.52a29.13,29.13,0,0,0,.2,3.36c.83,9.26,8.87,12.55,17.86,12.55s17-3.26,17.86-12.55c.16-1.71.17-2.42.19-3.36V23.91Z"/></g></g></svg>