<svg xmlns="http://www.w3.org/2000/svg" xmlns:xlink="http://www.w3.org/1999/xlink" viewBox="0 0 384.4 45.97"><defs><style>.cls-1{fill:#000;}.cls-2{clip-path:url(#clip-path);}.cls-3{fill:#000;}</style><clipPath id="clip-path"><rect class="cls-1" width="384.4" height="45.97"/></clipPath></defs><g id="Layer_2" data-name="Layer 2"><g id="Layer_1-2" data-name="Layer 1"><g class="cls-2"><path class="cls-3" d="M242.45,23.1c0,4.3,3.51,8.36,8,8.36a8.88,8.88,0,0,0,6-2.3V24.38h-5.68c-.28,0-.38-.08-.38-.38v-.82c0-.28.08-.39.38-.39h7.07c.31,0,.39.11.39.39v6a1.15,1.15,0,0,1-.11.55,1.19,1.19,0,0,1-.33.44,10.94,10.94,0,0,1-7.38,2.88,10,10,0,0,1,0-19.91,10.66,10.66,0,0,1,7.16,2.8c.21.21.17.33,0,.52l-.68.74c-.16.19-.3.21-.55,0a8.93,8.93,0,0,0-5.89-2.47c-4.45,0-8,4-8,8.37"/><path class="cls-3" d="M269.84,23.64c3.46,0,5-1.69,5-4.38,0-3-2-4.2-5-4.2h-5v8.58ZM272.2,25l5.28,7.27c.19.3,0,.44-.31.44h-1a.83.83,0,0,1-.37-.11.7.7,0,0,1-.26-.28l-5.16-7.1h-5.46v7.11c0,.33-.11.38-.38.38h-1c-.27,0-.38-.05-.38-.38V13.88c0-.3.11-.38.38-.38H270c3.13,0,6.62,1.32,6.62,5.76A5.4,5.4,0,0,1,272.21,25"/><path class="cls-3" d="M281,24.8V13.88c0-.3.11-.38.38-.38h1.05c.27,0,.36.08.36.38V24.66c0,4.83,2.49,6.81,5.89,6.81s5.89-2,5.89-6.81V13.88c0-.3.09-.38.39-.38h1c.31,0,.36.08.36.38V24.8c0,5.46-3.21,8.26-7.68,8.26S281,30.26,281,24.8Z"/><path class="cls-3" d="M309,31.13c3.56,0,5.05-1.45,5.05-3.89,0-2-2.09-3.62-4.75-3.62h-6v7.52Zm.08-9c2.44,0,4.28-1.23,4.28-3.13,0-2.71-2-3.92-5-3.92h-5.05v7ZM301.89,32.7c-.28,0-.39-.06-.39-.39V13.88c0-.3.11-.38.39-.38h6.57c3.13,0,6.69,1.28,6.69,5.32a4.3,4.3,0,0,1-3.26,4v0c1,.25,4,1.46,4,4.58,0,3.84-3.09,5.3-6.72,5.3Z"/><path class="cls-3" d="M327.59,31.13c3.56,0,5.05-1.45,5.05-3.89,0-2-2.09-3.62-4.75-3.62h-6v7.52Zm.08-9c2.44,0,4.28-1.23,4.28-3.13,0-2.71-2-3.92-5-3.92h-5.05v7ZM320.48,32.7c-.27,0-.38-.06-.38-.39V13.88c0-.3.11-.38.38-.38h6.58c3.12,0,6.69,1.28,6.69,5.32a4.3,4.3,0,0,1-3.26,4v0c1,.25,4,1.46,4,4.58,0,3.84-3.1,5.3-6.72,5.3Z"/><path class="cls-3" d="M345.55,23.64c3.45,0,5-1.69,5-4.38,0-3-2-4.2-5-4.2h-5v8.58ZM347.91,25l5.27,7.27c.2.3,0,.44-.3.44h-1a.84.84,0,0,1-.38-.11.7.7,0,0,1-.26-.28l-5.16-7.1h-5.46v7.11c0,.33-.11.38-.38.38h-1c-.28,0-.39-.05-.39-.38V13.88c0-.3.11-.38.39-.38h6.5c3.13,0,6.61,1.32,6.61,5.76A5.4,5.4,0,0,1,347.91,25"/><path class="cls-3" d="M364.18,23.64c3.45,0,5-1.69,5-4.38,0-3-2-4.2-5-4.2h-5v8.58ZM366.54,25l5.26,7.27c.2.3,0,.44-.3.44h-1a.8.8,0,0,1-.37-.11.73.73,0,0,1-.27-.28l-5.15-7.1h-5.46v7.11c0,.33-.11.38-.39.38h-1c-.28,0-.39-.05-.39-.38V13.88c0-.3.11-.38.39-.38h6.5c3.13,0,6.61,1.32,6.61,5.76A5.39,5.39,0,0,1,366.53,25"/><path class="cls-3" d="M372.53,13.93c.21,0,.32-.1.32-.28s-.12-.28-.33-.28h-.33v.56Zm.18.14.39.55s0,0,0,0h-.15l0,0-.39-.53h-.31v.53s0,0,0,0H372s0,0,0,0V13.24s0,0,0,0h.5c.24,0,.5.09.5.44a.44.44,0,0,1-.09.27.43.43,0,0,1-.24.16Zm-.2,1.19a1.36,1.36,0,0,0,1.22-.82,1.32,1.32,0,0,0,.08-.76,1.31,1.31,0,0,0-.37-.68,1.31,1.31,0,0,0-2,.2,1.37,1.37,0,0,0-.22.74,1.31,1.31,0,0,0,.39.93A1.29,1.29,0,0,0,372.51,15.26Zm0-2.76a1.44,1.44,0,0,1,.8.24,1.41,1.41,0,0,1,.53.65,1.47,1.47,0,0,1,.09.83,1.49,1.49,0,0,1-.4.74,1.42,1.42,0,0,1-.74.4,1.44,1.44,0,0,1-1.48-.61,1.45,1.45,0,0,1-.24-.81,1.49,1.49,0,0,1,.1-.55,1.63,1.63,0,0,1,.32-.47,1.38,1.38,0,0,1,.47-.31A1.46,1.46,0,0,1,372.51,12.5Z"/><path class="cls-3" d="M227.13,0V46H384.4V0ZM382.87,44.45H228.66V1.52H382.87Z"/><path class="cls-3" d="M0,34.38V12.25H7.32a11.88,11.88,0,0,1,4.77.88,6.61,6.61,0,0,1,4.13,6.44,7,7,0,0,1-1.06,3.91A6.9,6.9,0,0,1,12.1,26a11.47,11.47,0,0,1-4.75.9H3.9v7.46ZM3.9,23.51H7a6.42,6.42,0,0,0,3.92-1,3.43,3.43,0,0,0,1.38-2.9,3.37,3.37,0,0,0-1.38-2.88,6.47,6.47,0,0,0-3.92-1H3.9Z"/><path class="cls-3" d="M31.34,34.82A12.25,12.25,0,0,1,26.71,34,11,11,0,0,1,20.6,27.9a12.62,12.62,0,0,1,0-9.17A11,11,0,0,1,23,15.08a10.79,10.79,0,0,1,3.67-2.41,13,13,0,0,1,9.26,0,11,11,0,0,1,3.68,2.41,11.19,11.19,0,0,1,2.42,3.65,12.72,12.72,0,0,1,0,9.17A10.93,10.93,0,0,1,36,34,12.21,12.21,0,0,1,31.34,34.82Zm0-3.42a7.44,7.44,0,0,0,3-.6,7.22,7.22,0,0,0,2.42-1.7,8,8,0,0,0,1.59-2.57,9.3,9.3,0,0,0,0-6.41,7.86,7.86,0,0,0-1.59-2.57,7.08,7.08,0,0,0-2.42-1.7,7.9,7.9,0,0,0-6,0,7.18,7.18,0,0,0-2.42,1.7,8,8,0,0,0-1.6,2.57,9.18,9.18,0,0,0,0,6.41,8,8,0,0,0,1.6,2.57,7.18,7.18,0,0,0,2.42,1.7A7.61,7.61,0,0,0,31.34,31.4Z"/><path class="cls-3" d="M69.63,34.38H66.09L61.23,18.74,56.38,34.39H52.84L45.63,12.25h4.1L54.6,28l4.88-15.72H63l4.86,15.67,4.85-15.67h4.09Z"/><path class="cls-3" d="M80.51,34.38V12.25h14v3.42H84.41V21.5H94v3.41H84.41V31H94.69v3.42Z"/><path class="cls-3" d="M117,34.38h-4.33l-4.85-8.32h-4.19v8.32h-3.9V12.25h8.15a10.73,10.73,0,0,1,4.42.83,6.28,6.28,0,0,1,2.81,2.36,6.75,6.75,0,0,1,1,3.72,6.56,6.56,0,0,1-1.14,3.9,6.47,6.47,0,0,1-3.21,2.33ZM103.59,22.87h4a5.22,5.22,0,0,0,3.33-.94,3.15,3.15,0,0,0,1.17-2.66,3.18,3.18,0,0,0-1.18-2.65,5.22,5.22,0,0,0-3.33-1h-4Z"/><path class="cls-3" d="M120.9,34.38V12.25h14v3.42H124.8V21.5h9.54v3.41H124.8V31h10.28v3.42Z"/><path class="cls-3" d="M140.07,34.38V12.25h7a16.65,16.65,0,0,1,7,1.34,10.34,10.34,0,0,1,4.52,3.83,10.72,10.72,0,0,1,1.6,5.9,10.65,10.65,0,0,1-1.6,5.88A10.26,10.26,0,0,1,154,33a16.5,16.5,0,0,1-7,1.34ZM144,31h3.22a11.89,11.89,0,0,0,4.84-.89,6.71,6.71,0,0,0,3.06-2.61,7.68,7.68,0,0,0,1.06-4.14,7.69,7.69,0,0,0-1.06-4.15,6.63,6.63,0,0,0-3.06-2.6,11.72,11.72,0,0,0-4.84-.9H144Z"/><path class="cls-3" d="M172.63,34.38V12.25h8.08a8.51,8.51,0,0,1,5.35,1.5A5,5,0,0,1,188,17.9a5.5,5.5,0,0,1-.83,3A5.13,5.13,0,0,1,185,22.87a5.61,5.61,0,0,1,3,1.92,5.38,5.38,0,0,1,1.09,3.41,5.84,5.84,0,0,1-.92,3.25,6,6,0,0,1-2.57,2.16,9.18,9.18,0,0,1-3.9.77Zm3.89-12.7h4a4,4,0,0,0,2.66-.82,2.62,2.62,0,0,0,.74-1,2.68,2.68,0,0,0,.23-1.22,2.64,2.64,0,0,0-.23-1.21,2.84,2.84,0,0,0-.76-1,4.27,4.27,0,0,0-2.73-.8h-3.89Zm0,9.28h4.21a5.89,5.89,0,0,0,2.3-.41,3.45,3.45,0,0,0,1.51-1.13,2.86,2.86,0,0,0,.54-1.72,2.8,2.8,0,0,0-.5-1.66A3.17,3.17,0,0,0,183.16,25a5.83,5.83,0,0,0-2.18-.38h-4.46Z"/><path class="cls-3" d="M202.61,34.38h-3.9V24.93l-8.44-12.68H195l5.65,9.3,5.68-9.3h4.72L202.61,25Z"/></g></g></g></svg>